<svg width="128" height="128" viewBox="0 0 128 128" fill="none" xmlns="http://www.w3.org/2000/svg">
<path d="M95.7004 14C90.974 14.0728 86.3506 15.3916 82.2971 17.8233C78.2436 20.2549 74.9037 23.7133 72.6146 27.849C70.3264 23.7146 66.9879 20.2571 62.9361 17.8255C58.8843 15.394 54.2628 14.0744 49.538 14C42.0048 14.3274 34.9073 17.6229 29.7961 23.1666C24.6849 28.7102 21.9754 36.0515 22.2597 43.5865C22.2597 62.6688 42.3444 83.5091 59.1904 97.6393C62.9515 100.8 67.7069 102.533 72.6197 102.533C77.5325 102.533 82.2879 100.8 86.049 97.6393C102.894 83.5091 122.98 62.6688 122.98 43.5865C123.264 36.0513 120.554 28.7099 115.443 23.1662C110.332 17.6225 103.234 14.3271 95.7004 14ZM80.6558 91.2185C78.4063 93.1129 75.56 94.1517 72.6192 94.1517C69.6783 94.1517 66.832 93.1129 64.5826 91.2185C43.0201 73.1274 30.6529 55.7696 30.6529 43.5865C30.366 38.2765 32.1905 33.0685 35.7283 29.0983C39.2661 25.1281 44.2302 22.7179 49.538 22.3932C54.8456 22.7181 59.8095 25.1285 63.347 29.0986C66.8846 33.0688 68.7089 38.2766 68.4221 43.5865C68.4221 44.6997 68.8643 45.7674 69.6515 46.5546C70.4387 47.3418 71.5064 47.7841 72.6197 47.7841C73.733 47.7841 74.8006 47.3418 75.5878 46.5546C76.375 45.7674 76.8173 44.6997 76.8173 43.5865C76.5305 38.2768 78.3546 33.0691 81.892 29.099C85.4293 25.1288 90.3929 22.7184 95.7004 22.3932C101.009 22.7166 105.975 25.1263 109.513 29.0966C113.052 33.0669 114.877 38.2756 114.591 43.5865C114.591 55.7696 102.223 73.1264 80.6609 91.2024L80.6558 91.2185Z" fill="#DFE3EC"/>
<path d="M26.6551 109.288C33.7375 106.849 37.502 99.1306 35.0633 92.0481C32.6247 84.9657 24.9063 81.2012 17.8239 83.6399C10.7414 86.0786 6.97694 93.7969 9.41561 100.879C11.8543 107.962 19.5727 111.726 26.6551 109.288Z" stroke="#A3A6AD" stroke-width="10" stroke-dasharray="9 12"/>
</svg>
